<svg width="31" height="31" viewBox="0 0 31 31" fill="none" xmlns="http://www.w3.org/2000/svg">
<g id="refresh">
<path id="icon/action/cached_24px" fill-rule="evenodd" clip-rule="evenodd" d="M15.5 7.75008C11.2246 7.75008 7.74999 11.2247 7.74999 15.5001H11.625L6.45832 20.6667L1.29166 15.5001H5.16666C5.16666 9.79092 9.79082 5.16675 15.5 5.16675C17.5279 5.16675 19.4137 5.76091 21.0025 6.76841L19.1167 8.65425C18.0446 8.073 16.8046 7.75008 15.5 7.75008ZM19.375 15.5001L24.5417 10.3334L29.7083 15.5001H25.8333C25.8333 21.2092 21.2092 25.8334 15.5 25.8334C13.4721 25.8334 11.5862 25.2392 9.99749 24.2317L11.8833 22.3459C12.9554 22.9272 14.1954 23.2501 15.5 23.2501C19.7754 23.2501 23.25 19.7755 23.25 15.5001H19.375Z" fill="white"/>
</g>
</svg>
